# xmcd
#
# Track frame offsets: 
#        150
#        23074
#        54692
#        71643
#        95017
#        123248
#        139350
#        156264
#        180851
#
# Disc length: 2724 seconds
#
# Revision: 0
# Processed by: cddbd v1.5.2PL0 Copyright (c) Steve Scherf et al.
# Submitted via: ExactAudioCopy v1.3
#
DISCID=790aa209
DTITLE=大枪乐队 BIG GUN  - 蓝色的骨头
DYEAR=2014
DGENRE=Rock
TTITLE0=Iceman
TTITLE1=Black cat boun
TTITLE2=I m todown
TTITLE3=Who s been talking
TTITLE4=Talk women
TTITLE5=If you love me
TTITLE6=Sweet home CHICAGO
TTITLE7=Help the poor
TTITLE8=I just wanne little bit
EXTD=
EXTT0=
EXTT1=
EXTT2=
EXTT3=
EXTT4=
EXTT5=
EXTT6=
EXTT7=
EXTT8=
PLAYORDER=
